<?xml version="1.0" ?><svg id="Layer_1" style="enable-background:new 0 0 24 24;" version="1.1" viewBox="0 0 24 24" xml:space="preserve" xmlns="http://www.w3.org/2000/svg" xmlns:xlink="http://www.w3.org/1999/xlink"><title/><g id="Candy"><g><path d="M22.855,6.15c-0.287-0.29-0.682-0.446-1.09-0.43h-0.28c-0.209,0.048-0.429,0.001-0.6-0.13    c-0.14-0.14-0.15-0.26-0.13-0.6c0.084-0.494-0.072-0.999-0.42-1.36c-0.284-0.288-0.676-0.444-1.08-0.43h-0.25    c-0.205,0.048-0.42,0.004-0.59-0.12c-0.14-0.14-0.15-0.26-0.12-0.59c0.084-0.494-0.072-0.999-0.42-1.36    c-0.116-0.108-0.274-0.156-0.43-0.13c-0.154,0.018-0.291,0.107-0.37,0.24l-1.56,2.67c-0.138,0.239-0.057,0.545,0.182,0.683    c0.034,0.02,0.07,0.035,0.108,0.047c1.736,0.456,3.095,1.807,3.56,3.54c0.079,0.265,0.357,0.415,0.622,0.337    c0.038-0.011,0.074-0.027,0.108-0.047l2.65-1.55c0.239-0.138,0.321-0.444,0.183-0.683c-0.023-0.039-0.051-0.075-0.083-0.107    L22.855,6.15z" style="fill:#303C42;"/><path d="M8.195,19.35c-1.736-0.456-3.095-1.807-3.56-3.54c-0.079-0.265-0.357-0.415-0.622-0.337    C3.975,15.485,3.939,15.5,3.905,15.52l-2.65,1.55c-0.239,0.138-0.321,0.444-0.183,0.683c0.023,0.039,0.051,0.075,0.083,0.107    c0.287,0.29,0.682,0.446,1.09,0.43h0.28c0.26,0,0.45,0,0.6,0.13s0.15,0.26,0.13,0.6c-0.084,0.494,0.072,0.999,0.42,1.36    c0.284,0.288,0.676,0.444,1.08,0.43h0.25c0.206-0.045,0.422,0.002,0.59,0.13c0.14,0.14,0.15,0.26,0.12,0.59    c-0.084,0.494,0.072,0.999,0.42,1.36c0.104,0.085,0.237,0.124,0.37,0.11h0.06c0.154-0.018,0.291-0.107,0.37-0.24l1.56-2.67    c0.138-0.239,0.057-0.545-0.182-0.683c-0.034-0.02-0.07-0.035-0.108-0.047L8.195,19.35z" style="fill:#303C42;"/><path d="M14.105,5.39c-2.282,0.109-4.432,1.099-6,2.76c-1.34,1.316-2.25,3.007-2.61,4.85    c-0.371,1.56,0.06,3.203,1.15,4.38c0.876,0.833,2.052,1.277,3.26,1.23c2.282-0.109,4.432-1.099,6-2.76    c1.34-1.316,2.25-3.007,2.61-4.85c0.371-1.56-0.06-3.203-1.15-4.38C16.489,5.787,15.313,5.343,14.105,5.39z M10.265,10.27    c-0.909,0.874-1.539,1.998-1.81,3.23c-0.043,0.237-0.249,0.409-0.49,0.41h-0.09c-0.272-0.046-0.456-0.303-0.411-0.576    c0-0.001,0.001-0.003,0.001-0.004c0.309-1.438,1.04-2.75,2.1-3.77c0.196-0.196,0.514-0.196,0.71,0s0.196,0.514,0,0.71    L10.265,10.27z" style="fill:#303C42;"/></g></g></svg>